<?xml version="1.0" encoding="utf-8"?>
<!-- Generator: Adobe Illustrator 25.0.0, SVG Export Plug-In . SVG Version: 6.00 Build 0)  -->
<svg version="1.1" id="Camada_1" xmlns="http://www.w3.org/2000/svg" xmlns:xlink="http://www.w3.org/1999/xlink" x="0px" y="0px"
	 viewBox="0 0 265 100" style="enable-background:new 0 0 265 100;" xml:space="preserve">
<style type="text/css">
	.st0{fill:#32BEF0;stroke:#009EC9;stroke-miterlimit:10;}
	.st1{fill:#312783;}
	.st2{font-family:'BernardMT-Condensed';}
	.st3{font-size:109.6282px;}
	.st4{fill:#FFFFFF;}
	.st5{fill:#27348B;stroke:#009FE3;stroke-miterlimit:10;}
</style>
<rect class="st0" width="265" height="100"/>
<text transform="matrix(0.4373 0 0 1 1.2549 94.3662)"><tspan x="0" y="0" class="st1 st2 st3">WA</tspan><tspan x="130.18" y="0" class="st4 st2 st3">COMBUS</tspan></text>
<path id="rect7223-2-4-9" class="st5" d="M203.91,12.5c-2.31,0-4.17,1.86-4.17,4.17v66.67c0,2.08,2.08,4.17,4.17,4.17h37.5
	c2.08,0,4.17-2.08,4.17-4.17V62.5h2.08c2.08,0,2.08,2.08,2.08,2.08v8.33c0,4.17,2.08,6.25,6.25,6.25s6.25-2.08,6.25-6.25
	c0-4.86,0-18.75,0-22.92s-8.33-8.33-8.33-12.5V25h-4.17l-4.17-4.17v-4.17c0-2.31-1.86-4.17-4.17-4.17L203.91,12.5z M208.08,20.83
	h29.17V37.5h-29.17V20.83z M245.58,33.33h4.17c0,0,0,3.47,0,6.25c0,4.17,8.33,8.33,8.33,12.5v20.83c0,2.08-2.08,2.08-2.08,2.08
	s-2.08,0-2.08-2.08c0,0,0-8.33,0-10.42c0-2.08-2.08-4.17-4.17-4.17c-1.39,0-4.17,0-4.17,0L245.58,33.33z"/>
</svg>
